<svg xmlns="http://www.w3.org/2000/svg" width="920" height="560" viewBox="0 0 920 560">
  <rect width="100%" height="100%" fill="#f7efd7"/>
  <style>text{font:13px ui-sans-serif,system-ui,sans-serif;fill:#2f2b24}.title{font-size:22px;font-weight:700}.desc{font-size:13px;fill:#5f5544}.axis{font-weight:700}</style>
  <text class="title" x="74" y="32">Temporary outage tipping curve</text>
  <text class="desc" x="74" y="56">Short outages are absorbed; longer outages cross a threshold into lasting territorial loss.</text>
  <line x1="74" y1="88" x2="892" y2="88" stroke="#ddd4bd"/><text x="64" y="92" text-anchor="end">41.0</text><line x1="74" y1="166.8" x2="892" y2="166.8" stroke="#ddd4bd"/><text x="64" y="170.8" text-anchor="end">32.8</text><line x1="74" y1="245.60000000000002" x2="892" y2="245.60000000000002" stroke="#ddd4bd"/><text x="64" y="249.60000000000002" text-anchor="end">24.6</text><line x1="74" y1="324.4" x2="892" y2="324.4" stroke="#ddd4bd"/><text x="64" y="328.4" text-anchor="end">16.4</text><line x1="74" y1="403.20000000000005" x2="892" y2="403.20000000000005" stroke="#ddd4bd"/><text x="64" y="407.20000000000005" text-anchor="end">8.2</text><line x1="74" y1="482" x2="892" y2="482" stroke="#ddd4bd"/><text x="64" y="486" text-anchor="end">0.0</text>
  <line x1="74" y1="482" x2="892" y2="482" stroke="#2f2b24"/>
  <line x1="74" y1="88" x2="74" y2="482" stroke="#2f2b24"/>
  <text class="axis" x="460" y="542" text-anchor="middle">outage seconds</text>
  <text class="axis" x="20" y="280" transform="rotate(-90 20 280)" text-anchor="middle">territorial loss</text>
  <path d="M 74.00 481.99 L 128.53 481.91 L 183.07 278.23 L 237.60 234.37 L 292.13 88.00 L 346.67 88.00 L 401.20 88.00 L 455.73 88.00 L 510.27 88.00 L 564.80 88.00 L 619.33 88.00 L 673.87 88.00 L 782.93 88.00 L 892.00 88.00" fill="none" stroke="#7f231e" stroke-width="2.4"/>
  <g transform="translate(74, 532)"><line x1="0" y1="0" x2="24" y2="0" stroke="#7f231e" stroke-width="3"/><text x="32" y="4">loss</text></g>
</svg>
